<?xml version="1.0" encoding="UTF-8" standalone="no"?>
<!-- Created with Inkscape (http://www.inkscape.org/) -->
<svg xmlns:dc="http://purl.org/dc/elements/1.1/" xmlns:cc="http://creativecommons.org/ns#" xmlns:rdf="http://www.w3.org/1999/02/22-rdf-syntax-ns#" xmlns:svg="http://www.w3.org/2000/svg" xmlns="http://www.w3.org/2000/svg" xmlns:sodipodi="http://sodipodi.sourceforge.net/DTD/sodipodi-0.dtd" xmlns:inkscape="http://www.inkscape.org/namespaces/inkscape" width="956.22003" height="799.64209" id="svg10675" version="1.1" inkscape:version="0.48.1 " sodipodi:docname="Nuovo documento 17">
  <defs id="defs10677">
    <filter color-interpolation-filters="sRGB" inkscape:collect="always" id="filter7728">
      <feGaussianBlur inkscape:collect="always" stdDeviation="12.236168" id="feGaussianBlur7730"/>
    </filter>
    <filter color-interpolation-filters="sRGB" inkscape:collect="always" id="filter7706" x="-0.10408695" width="1.2081739" y="-0.070411764" height="1.1408235">
      <feGaussianBlur inkscape:collect="always" stdDeviation="7.0533901" id="feGaussianBlur7708"/>
    </filter>
    <filter color-interpolation-filters="sRGB" inkscape:collect="always" id="filter7658" x="-0.020168424" width="1.0403368" y="-0.16741736" height="1.3348347">
      <feGaussianBlur inkscape:collect="always" stdDeviation="4.1772234" id="feGaussianBlur7660"/>
    </filter>
  </defs>
  <sodipodi:namedview id="base" pagecolor="#ffffff" bordercolor="#666666" borderopacity="1.0" inkscape:pageopacity="0.0" inkscape:pageshadow="2" inkscape:zoom="0.35" inkscape:cx="928.52189" inkscape:cy="251.24965" inkscape:document-units="px" inkscape:current-layer="g7732" showgrid="false" fit-margin-top="0" fit-margin-left="0" fit-margin-right="0" fit-margin-bottom="0" inkscape:window-width="1366" inkscape:window-height="746" inkscape:window-x="-8" inkscape:window-y="-8" inkscape:window-maximized="1"/>
  <g inkscape:label="Livello 1" inkscape:groupmode="layer" id="layer1" transform="translate(553.5219,16.030297)">
    <g id="g7732" transform="matrix(1.1229963,0,0,1.1229963,-619.35739,-362.50641)">
      <path style="fill:#f9f9f9;fill-rule:evenodd;stroke:none;filter:url(#filter7728)" d="m 304,508 c 57.33333,0 114.66667,0 172,0 16.126,0 276,9.72085 276,12 0,70.86039 58.65119,314.6512 112,368 0.75544,0.75544 20.82524,45.58738 16,48 -19.68632,9.84316 -767.83142,-7.91571 -792,-20 -1.29593,-0.64796 148.79662,-368.77973 152,-388" id="path7710" inkscape:connector-curvature="0" transform="translate(0,52.362183)"/>
      <path transform="translate(0,52.362183)" style="fill:#000000;fill-rule:evenodd;stroke:none" d="m 304,508 c 0,-1.01274 63.27607,-1.95546 172,-2.7432 1.96258,-0.0133 3.9064,0.0332 5.8287,0.0694 3.54078,0.066 7.12436,0.14966 10.74989,0.23821 10.75891,0.26277 21.91707,0.57722 33.4588,0.91716 29.02268,0.85479 60.48914,1.88273 94.1547,3.09036 28.81504,1.03358 59.25119,2.16348 91.1483,3.64171 9.75797,0.45204 19.67416,0.91763 29.73633,1.56512 2.75345,0.17648 5.56257,0.35972 8.41964,0.64364 0,0 0,0 0,0 2e-5,10e-6 4e-5,10e-6 7e-5,10e-6 0,0 0,0 0,0 0.73001,0.0698 1.55129,0.15582 2.45655,0.30662 0,0 0,0 0,0 0.19885,0.0233 0.56259,0.0984 1.08456,0.24842 10e-6,10e-6 10e-6,2e-5 2e-5,3e-5 0.43753,0.58912 1.10962,1.32152 2.01114,2.20602 0,0 0,0 0,0 0.014,0.009 0.0277,0.0189 0.0385,0.0315 0.007,0.008 0.0132,0.0187 0.0139,0.0296 0.34143,5.47475 0.96181,11.02956 1.70678,16.65785 0.49644,6.13092 1.18704,12.31047 1.9913,18.54043 1.93708,15.00341 4.52018,30.21609 7.46627,45.64621 6.83746,35.80248 15.60225,72.64367 26.16974,110.23898 5.20858,18.52774 10.87421,37.22123 17.15975,55.98263 5.68138,16.95564 11.84388,33.95935 18.83662,50.81374 5.82561,14.03117 12.14533,27.94975 19.67397,41.26678 5.61779,9.87191 11.59671,19.46056 19.35767,27.14553 0.83167,1.00286 1.13424,1.43317 0.93582,1.26644 0.14029,0.25257 0.24856,0.4613 0.32953,0.62344 0.29587,0.58516 0.56184,1.14426 0.80934,1.67136 0.85053,1.80792 1.65946,3.61366 2.44967,5.40595 2.33514,5.29407 4.57476,10.65663 6.6922,16.09231 2.08969,5.34492 4.1587,10.87691 5.73046,16.72019 0,2e-5 10e-6,5e-5 2e-5,8e-5 0.53761,1.91058 1.06365,4.12428 1.24902,6.66004 10e-6,4e-5 10e-6,7e-5 10e-6,1.1e-4 0.0977,0.75858 0.0576,1.87791 -0.24866,3.31894 -8.9e-4,1.13634 -1.04379,2.58521 -3.20069,4.12441 -0.5885,0.27838 -1.04772,0.45045 -1.36714,0.53431 -0.47351,0.14134 -0.89525,0.2449 -1.26145,0.32082 -1.03688,0.21827 -2.00367,0.36201 -2.89017,0.47255 -2.81797,0.35911 -5.57668,0.55742 -8.25769,0.72321 -9.0211,0.56474 -18.03893,0.77954 -27.0296,0.95713 -13.17923,0.26192 -26.42174,0.36058 -39.71929,0.4018 -16.69018,0.0519 -33.48456,5.6e-4 -50.3731,-0.10527 -10.55423,-0.0661 -21.14683,-0.15309 -31.77556,-0.25844 -31.17119,-0.30897 -62.02103,-0.76912 -92.4934,-1.30228 -48.16965,-0.84277 -95.40407,-1.88774 -141.48118,-3.0675 -48.60112,-1.24436 -95.91792,-2.64085 -141.68736,-4.19534 -43.06818,-1.46272 -84.77314,-3.05529 -124.88716,-4.90348 -17.24244,-0.7944 -34.1948,-1.63698 -50.83578,-2.57352 -13.6323,-0.76713 -27.06619,-1.59005 -40.28125,-2.57346 -9.29846,-0.69103 -18.53937,-1.42602 -27.67442,-2.51824 -2.817104,-0.33531 -5.683411,-0.70845 -8.571835,-1.24342 -0.947206,-0.17399 -1.946313,-0.37989 -2.985372,-0.65505 -0.971286,-0.84581 -2.153652,-1.80743 -3.498058,-2.97578 -0.03454,-0.0902 -0.06127,-0.18688 -0.08848,-0.27992 -0.05904,-0.20185 -0.115306,-0.39861 -0.172206,-0.59017 -0.216368,-0.7284 -0.437056,-1.3827 -0.669731,-1.96429 0.121414,-0.41958 0.238003,-0.76273 0.334414,-1.0342 0.391358,-1.12469 0.799694,-2.20128 1.195363,-3.24073 8e-6,-2e-5 1.6e-5,-4e-5 2.3e-5,-6e-5 1.523048,-4.00639 3.086038,-7.94956 4.633244,-11.85155 5.706678,-14.39323 11.375798,-28.41213 16.901788,-42.08168 19.08119,-47.20112 36.63454,-90.26189 52.21971,-128.5769 10.9905,-27.01941 21.02858,-51.66679 29.98096,-73.72169 8.95237,-22.0549 16.82102,-41.51657 23.52911,-58.14137 3.90671,-9.68222 7.42413,-18.39737 10.51371,-26.10881 3.08957,-7.71144 5.75303,-14.41852 7.98875,-20.06926 0,0 0,-10e-6 10e-6,-10e-6 2.39817,-6.06168 4.29061,-10.90307 5.66231,-14.47738 0.73308,-1.91048 1.31545,-3.45318 1.75107,-4.62524 0.24159,-0.6501 0.43737,-1.18345 0.59147,-1.60079 0.27139,-0.73659 0.40921,-1.10721 0.48834,-1.09402 0.0791,0.0132 0.0958,0.42933 -0.0249,1.21351 -0.0687,0.44676 -0.18066,1.01442 -0.33843,1.69616 -0.28439,1.22912 -0.71941,2.83779 -1.30416,4.80569 -1.09449,3.68374 -2.71834,8.64711 -4.84758,14.81442 0,0 -1e-5,10e-6 -1e-5,10e-6 -1.98571,5.75179 -4.40417,12.56178 -7.25316,20.37499 -2.84898,7.81321 -6.13024,16.62899 -9.80346,26.40457 -6.30837,16.78866 -13.79204,36.41148 -22.37535,58.62104 -8.58331,22.20957 -18.26821,47.00511 -28.92174,74.16028 -15.1092,38.51242 -32.22191,81.75275 -50.90021,129.1029 -5.41081,13.71663 -10.96261,27.76652 -16.548219,42.17012 -1.517433,3.91325 -3.038229,7.83386 -4.505736,11.78141 -7e-6,2e-5 -1.4e-5,4e-5 -2.2e-5,6e-5 -0.386781,1.04162 -0.761934,2.04988 -1.095363,3.03443 -0.08989,0.27069 -0.159531,0.47041 -0.193402,0.60318 -0.272556,-0.43986 -0.532891,-0.95193 -0.77333,-1.53502 -0.06323,-0.15334 -0.125423,-0.31151 -0.183163,-0.47465 -0.02662,-0.0752 -0.05336,-0.14891 -0.07194,-0.23117 -0.298307,-0.6453 -0.34425,-1.2879 -0.182823,-1.83482 0.729462,0.19149 1.527695,0.34588 2.384402,0.50101 2.601309,0.46664 5.296973,0.79426 8.065376,1.10792 8.92924,1.00664 18.05043,1.66786 27.32902,2.29863 13.14962,0.89248 26.53762,1.6289 40.14822,2.31441 16.60975,0.83645 33.53769,1.58372 50.76455,2.28788 40.07855,1.63823 81.75423,3.04551 124.80534,4.34996 45.74889,1.38615 93.04482,2.6441 141.6264,3.78231 46.05856,1.07908 93.26997,2.05232 141.41232,2.85445 30.45672,0.50744 61.28299,0.95431 92.42242,1.26297 10.61789,0.10525 21.19879,0.19361 31.74048,0.26264 16.86814,0.11044 33.63188,0.17028 50.28175,0.13081 13.26983,-0.0315 26.457,-0.11741 39.5546,-0.36349 8.9671,-0.16957 17.84309,-0.36757 26.60815,-0.90702 2.62772,-0.16378 5.17258,-0.33809 7.61789,-0.65141 0.77899,-0.10223 1.47523,-0.19865 2.07909,-0.33072 0.21001,-0.0471 0.36187,-0.0806 0.45196,-0.11048 0.0864,-0.0395 0.0302,-0.006 -0.17899,0.083 -1.4687,1.1951 -2.14276,1.87663 -1.95315,2.26776 -0.008,0.27442 -0.0633,0.16987 -0.0385,-0.27284 0,-2e-5 0,-4e-5 0,-6e-5 -0.049,-1.32649 -0.46702,-2.89314 -0.92487,-4.71441 -10e-6,-2e-5 -2e-5,-5e-5 -2e-5,-8e-5 -1.38158,-5.22829 -3.33026,-10.42228 -5.3678,-15.69952 -2.05075,-5.29188 -4.22591,-10.52575 -6.4988,-15.70594 -0.77252,-1.75985 -1.54494,-3.4942 -2.34029,-5.19215 -0.23818,-0.50746 -0.46129,-0.98116 -0.68084,-1.41532 -0.0685,-0.13345 -0.11114,-0.21967 -0.13272,-0.25601 -0.27484,-0.30311 -0.0374,-0.0205 0.6837,0.87181 -8.7295,-8.80548 -15.21442,-19.10511 -20.90121,-29.30058 -7.76647,-13.83414 -14.2189,-28.11681 -20.08021,-42.37068 -7.05437,-17.14286 -13.24152,-34.37289 -18.91392,-51.4985 -6.27915,-18.95467 -11.92042,-37.81579 -17.08825,-56.48787 -10.48239,-37.86925 -19.13094,-75.00687 -25.823,-111.11054 -2.88485,-15.5599 -5.40635,-30.96127 -7.28066,-46.19987 -0.77865,-6.32987 -1.44351,-12.64689 -1.91402,-18.94939 -0.0479,-4.56701 0.0219,-9.16805 0.36337,-13.79042 6.8e-4,-0.009 -0.004,-0.0177 -0.01,-0.0245 -0.009,-0.0101 -0.0205,-0.0175 -0.0324,-0.0239 0,0 0,0 0,0 0.81405,0.83252 1.38856,1.53244 1.72901,2.09112 0,10e-6 0,2e-5 10e-6,2e-5 0.1585,0.0361 0.1458,0.0447 -0.0305,0.003 0,0 0,0 0,0 -0.53741,-0.099 -1.17261,-0.16433 -1.8963,-0.2442 0,0 0,0 0,0 -2e-5,-1e-5 -5e-5,-1e-5 -7e-5,-1e-5 0,0 0,0 0,0 -2.66836,-0.28502 -5.38268,-0.47905 -8.13139,-0.67563 -9.96437,-0.71032 -19.83153,-1.24368 -29.58231,-1.76792 -31.83958,-1.71139 -62.24399,-3.09292 -91.04264,-4.39462 -33.6418,-1.52058 -65.08408,-2.88293 -94.08356,-4.09129 -11.53345,-0.48057 -22.67752,-0.93851 -33.41884,-1.34754 -3.62058,-0.13786 -7.192,-0.27095 -10.71453,-0.38662 C 479.74245,510.82997 477.84839,510.75652 476,510.7432 367.27607,509.95546 304,509.01274 304,508 z" id="path7596" inkscape:connector-curvature="0"/>
      <path style="fill:#000000;fill-rule:evenodd;stroke:none" d="m 236.26959,503.64047 c -0.0577,0.33955 -2.53572,0.2281 -7.19799,-0.12449 -2.33114,-0.1763 -5.20858,-0.40811 -8.59906,-0.60218 -3.39049,-0.19408 -7.29421,-0.35313 -11.67085,-0.29407 0,0 0,0 -1e-5,0 -2.51956,0.0397 -5.19193,0.12855 -7.95215,0.40932 -2.76021,0.28077 -5.60869,0.75235 -8.44532,1.64211 -2.9261,0.95679 -5.87145,2.25875 -7.68325,4.50047 -1.31219,1.4896 -2.10684,3.59293 -2.36623,5.83119 -0.26675,2.25951 0.0291,4.74866 0.49837,7.40789 0.45767,2.49436 1.15036,5.11267 1.77719,7.94492 0.51963,2.1567 1.04575,4.70087 0.85865,7.65224 -0.0624,1.1586 -0.38999,2.4676 -1.10932,3.81897 -0.77726,1.32047 -1.87329,2.35038 -3.17376,3.00701 -4.10458,2.12959 -8.38585,4.14448 -12.75752,6.17561 -4.37167,2.03114 -8.83384,4.07825 -13.27229,6.32899 -4.16421,2.13459 -8.37604,4.35966 -12.38454,6.88999 -4.0085,2.53033 -7.81374,5.36581 -11.1057,8.77649 -6.25002,6.39673 -12.50228,13.07573 -17.60449,20.68278 -1.58948,2.37559 -3.03651,4.76898 -4.1122,7.24119 -0.76116,1.79052 -1.36694,3.50677 -1.53045,5.11873 -0.10941,1.17387 -0.0874,2.26418 0.22719,3.09003 0.22391,0.7309 0.71216,1.46921 1.33051,2.1189 1e-5,10e-6 1e-5,10e-6 1e-5,10e-6 0.6939,0.74807 1.70042,1.39804 2.86212,2.03291 1.34555,0.71714 2.88349,1.2849 4.5412,1.80525 3.88711,1.21417 8.13481,1.91184 12.59801,2.57599 4.73422,0.69143 9.63654,1.24884 14.66954,1.98723 4.55838,0.6572 9.32693,1.46911 14.15168,2.94196 2.04622,0.62263 4.15212,1.41972 6.24427,2.49599 1e-5,0 2e-5,10e-6 3e-5,10e-6 1.82332,0.92349 3.6562,2.1622 5.34231,3.80558 1.92082,2.30646 2.60902,4.75797 2.19935,6.88543 0,2e-5 0,4e-5 -1e-5,6e-5 -0.37895,2.32857 -1.12843,4.14375 -1.88092,5.46989 -1.93828,3.74579 -4.1971,6.89605 -5.98798,9.87755 0,10e-6 -1e-5,2e-5 -1e-5,2e-5 -0.92412,1.55698 -1.76142,3.041 -2.37816,4.49893 -1e-5,10e-6 -1e-5,2e-5 -1e-5,2e-5 -0.51702,1.29995 -0.92868,2.41106 -0.95644,3.30966 0,10e-6 0,10e-6 0,2e-5 -0.004,0.65714 0.0299,1.22904 0.22804,1.41123 1e-5,0 1e-5,0 1e-5,0 0.0982,0.41949 0.89822,0.87601 1.9042,1.486 1e-5,0 1e-5,1e-5 2e-5,1e-5 3.70963,1.82745 7.44711,3.38465 11.23312,4.24171 2.74276,0.61098 5.45609,0.91875 7.97147,0.61131 2.02077,-0.22259 4.02444,-0.82776 5.84134,-1.76903 1e-5,-10e-6 2e-5,-10e-6 2e-5,-10e-6 1.74492,-0.88261 3.42052,-2.15853 5.06105,-3.6336 1.58963,-1.42675 3.10546,-3.08211 4.65839,-4.8598 1.71581,-1.96413 3.4687,-4.06663 5.40647,-6.15946 1.79507,-1.96 3.7967,-3.91465 6.11078,-5.68844 2.31409,-1.77624 4.96582,-3.25763 7.90492,-4.25469 7.06639,-2.29707 14.02411,-3.03534 20.42576,-3.90906 6.40084,-0.9732 12.38611,-1.78193 17.13454,-4.24533 -1.54592,1.33185 -2.11223,1.6759 -1.52402,1.31099 0.14526,-0.26466 0.29429,-0.71479 0.51011,-1.31676 0.56847,-1.65646 1.06008,-3.46713 1.61876,-5.3821 0.58311,-2.01905 1.20873,-4.14163 2.01269,-6.314 0.33739,-1.35625 1.21734,-3.44082 3.21573,-5.71937 2.33885,-2.28667 5.05123,-3.93293 7.85734,-4.99951 10e-6,0 2e-5,-10e-6 3e-5,-10e-6 3.01952,-1.15148 6.04787,-1.77399 8.94784,-2.08893 6.6035,-0.72559 12.90362,-0.33191 18.81785,0.0722 6.00472,0.374 11.65753,0.89271 16.94993,0.50894 2.25197,-0.1733 4.336,-0.44348 6.13692,-1.05645 0,0 10e-6,0 10e-6,0 1.53349,-0.54265 2.88655,-1.20816 3.73998,-2.11127 0.38756,-0.4766 0.69577,-0.78168 0.62292,-0.8583 0,0 0,0 0,0 0.0755,-0.0134 -0.009,-0.29781 -0.10394,-0.69165 -0.32559,-1.32003 -1.82594,-2.70427 -3.51226,-4.46929 -1.69945,-1.63492 -3.75426,-3.2523 -5.83696,-5.18313 -10e-6,0 -10e-6,-10e-6 -2e-5,-10e-6 -0.7191,-0.62307 -1.62148,-1.52487 -2.53462,-2.81115 0,-10e-6 -10e-6,-2e-5 -2e-5,-3e-5 -0.34555,-0.42668 -0.70999,-1.18004 -1.02736,-2.26466 -0.30815,-1.00587 -0.18469,-2.24849 0.40283,-3.66553 1.99166,-3.84969 4.53937,-7.06601 7.11711,-9.88895 2.96501,-3.28192 6.05561,-6.22297 9.06116,-9.02616 3.08053,-2.87932 6.09043,-5.61106 8.86334,-8.38155 2.48263,-2.50373 4.7587,-4.90185 6.43105,-7.4643 1.22682,-2.06689 2.26304,-3.91863 2.10813,-5.42734 0.005,-0.64645 -0.16894,-1.33528 -0.4708,-1.94719 -0.36088,-0.79315 -1.06603,-1.57107 -1.9047,-2.35307 -2.84653,-2.64564 -6.89448,-4.18834 -11.02001,-5.70183 -7.56007,-2.67053 -15.19428,-4.22945 -22.46743,-5.58195 -7.33831,-1.36555 -13.80082,-3.88598 -19.56805,-6.50391 -3.41731,-1.54599 -6.60733,-3.13466 -9.62357,-4.66426 -3.01623,-1.5296 -5.85848,-3.00064 -8.55872,-4.35389 -3.33261,-1.66509 -6.44573,-3.16156 -9.35936,-4.41316 -2.91363,-1.25159 -5.62722,-2.26058 -8.13369,-3.03762 -5.20709,-1.83689 -9.49314,-2.47677 -12.51346,-2.65661 -1.51016,-0.0899 -2.71304,-0.0744 -3.59396,-0.0523 -0.88093,0.0221 -1.44063,0.049 -1.6628,0.0199 -0.01,-0.0592 -0.01,-0.0593 -0.01,-0.0593 0,0 -2e-5,-1.3e-4 -0.01,-0.0593 0.20222,-0.0999 0.74883,-0.2625 1.64051,-0.44859 0.89168,-0.1861 2.12946,-0.39408 3.707,-0.53955 1.57754,-0.14547 3.49627,-0.22622 5.72438,-0.1412 2.22811,0.085 4.76727,0.33844 7.53701,0.84159 2.69206,0.59832 5.60932,1.43951 8.71605,2.52827 3.10673,1.08875 6.40237,2.42734 9.86401,3.9301 2.81252,1.21711 5.74556,2.54541 8.81112,3.91681 3.06555,1.37141 6.26338,2.78643 9.62315,4.13272 5.67749,2.26637 11.82381,4.41242 18.44138,5.37285 7.43444,1.09877 15.42271,2.4815 23.66857,5.10753 4.4244,1.35159 9.28615,3.19516 13.6285,6.7614 1.38773,1.14182 2.69755,2.61468 3.72266,4.46803 0.84841,1.58447 1.34404,3.36399 1.4178,5.22656 -0.007,3.88854 -1.38337,7.26676 -3.15356,9.85705 -2.11885,3.32883 -4.68082,6.21438 -7.25338,8.86748 -2.8931,3.00945 -5.91902,5.87333 -8.88892,8.75553 -2.91151,2.83131 -5.78987,5.6628 -8.40403,8.6741 -2.26875,2.64383 -4.35276,5.29208 -5.70609,8.13236 0.37329,-0.98858 0.48127,-1.72326 0.28535,-2.26273 -0.17213,-0.4811 -0.22384,-0.68325 -0.2203,-0.59525 0,0 0,10e-6 0,10e-6 0.12182,0.23959 0.58735,0.61261 1.23558,1.24157 0,0 1e-5,10e-6 1e-5,10e-6 1.75692,1.58502 3.85718,3.19075 6.00644,5.17793 2.05313,1.75427 4.31785,4.20519 5.83637,7.75534 0.67079,1.62775 0.90807,3.57411 0.54788,5.69056 0,2e-5 -1e-5,3e-5 -1e-5,5e-5 -0.56763,2.34212 -1.68411,4.19498 -3.05333,5.47516 -2.16506,2.11538 -4.69012,3.54575 -7.24586,4.37781 -1e-5,10e-6 -2e-5,10e-6 -3e-5,10e-6 -2.84422,0.94862 -5.68015,1.40257 -8.37214,1.59756 -6.25505,0.47643 -12.35227,0.0245 -18.2033,-0.3119 -5.92061,-0.30502 -11.67798,-0.65894 -17.12398,0.04 -2.35813,0.30669 -4.58996,0.75247 -6.54699,1.55084 -1e-5,0 -2e-5,10e-6 -2e-5,10e-6 -1.75668,0.72115 -3.35331,1.66221 -4.50858,2.86964 -0.12198,-0.15817 -0.23463,0.7498 -0.9409,2.22041 -0.63861,1.73504 -1.17648,3.63115 -1.75194,5.64151 -0.51477,1.81839 -1.03966,3.77219 -1.72078,5.81814 -0.22206,0.69548 -0.53054,1.54215 -0.98989,2.50922 0.24472,0.33486 -0.6614,1.47818 -2.90534,3.15904 -6.66563,3.24363 -13.67723,4.40513 -20.13458,5.26713 -6.64458,0.98832 -13.03456,1.61129 -18.67266,3.54904 -1.71526,0.5544 -3.40144,1.53136 -5.01418,2.74059 -1.64667,1.23747 -3.21333,2.80028 -4.81039,4.51582 -1.69873,1.8475 -3.39321,3.88824 -5.23434,5.97737 -1.66636,1.89083 -3.44558,3.81177 -5.44613,5.65405 -2.09546,1.92672 -4.48963,3.69864 -7.21149,5.12041 -1e-5,0 -2e-5,10e-6 -3e-5,10e-6 -2.91821,1.50153 -6.08555,2.45201 -9.32998,2.80912 -3.95034,0.40442 -7.77828,0.0212 -11.32293,-0.83256 -4.83211,-1.15068 -9.29055,-2.98407 -13.40849,-5.0704 -1e-5,-10e-6 -2e-5,-10e-6 -3e-5,-2e-5 -2.18113,-0.98357 -4.36022,-2.75244 -6.03674,-5.40336 -1e-5,-2e-5 -2e-5,-3e-5 -2e-5,-5e-5 -1.29346,-2.39847 -1.7483,-4.89806 -1.5016,-7.19883 0,-2e-5 0,-3e-5 0,-4e-5 0.25817,-2.46869 0.93666,-4.60246 1.75603,-6.38889 0,-10e-6 1e-5,-2e-5 1e-5,-2e-5 0.91104,-2.07045 1.95731,-3.93811 3.00716,-5.65549 1e-5,-10e-6 1e-5,-2e-5 2e-5,-3e-5 2.09524,-3.46464 4.25907,-6.39969 5.7247,-9.26976 0.50915,-1.12598 0.93369,-1.86415 0.90796,-2.25809 0,0 0,0 0,0 -0.14729,0.10504 0.10068,0.36185 0.58432,1.23114 -0.73226,-0.77499 -1.77325,-1.44859 -2.96244,-2.10193 -10e-6,0 -10e-6,0 -2e-5,-1e-5 -1.38605,-0.7443 -2.95603,-1.33644 -4.63106,-1.87696 -3.99078,-1.28261 -8.28634,-2.02698 -12.70393,-2.72953 -4.82255,-0.75461 -9.72472,-1.36185 -14.6475,-2.13346 -4.58586,-0.70679 -9.30273,-1.56752 -13.9664,-3.05209 -2.01072,-0.63745 -4.06427,-1.44889 -6.07938,-2.52974 -1.77159,-0.93448 -3.53145,-2.18678 -5.11503,-3.82576 -1e-5,-10e-6 -2e-5,-2e-5 -3e-5,-3e-5 -1.49461,-1.56494 -2.65371,-3.48293 -3.35142,-5.64567 -0.717927,-2.41598 -0.828297,-4.79258 -0.507837,-6.96279 0.40712,-2.8272 1.281167,-5.36362 2.333207,-7.60459 1.44095,-3.12334 3.18251,-5.94114 5.00191,-8.5349 5.77884,-8.25494 12.46879,-15.19016 18.98215,-21.5568 3.99485,-3.87613 8.33864,-7.0045 12.74982,-9.68595 4.41117,-2.68145 8.88985,-4.91592 13.21354,-6.94887 4.67262,-2.22279 9.25856,-4.18483 13.67251,-6.08775 4.41394,-1.90291 8.65603,-3.74647 12.66743,-5.67487 0.19346,-0.0903 0.37921,-0.21883 0.43073,-0.32639 0.15044,-0.14731 0.22352,-0.55802 0.32345,-1.10321 0.24799,-1.61588 -0.16641,-3.57487 -0.53326,-5.76116 -0.4996,-2.68625 -1.11364,-5.42244 -1.52863,-8.23175 -0.4541,-2.95277 -0.64427,-6.05216 -0.20604,-9.13745 0.46444,-3.24946 1.864,-6.3083 4.04602,-8.68823 3.0871,-3.18337 6.87699,-4.76342 10.36098,-5.59848 3.29794,-0.82508 6.46134,-1.18451 9.43936,-1.32343 2.97802,-0.13893 5.7711,-0.0562 8.35464,0.091 0,0 0,0 1e-5,0 4.51087,0.24624 8.478,0.71658 11.89433,1.22651 3.41633,0.50994 6.28197,1.06218 8.58463,1.56276 4.60534,1.00115 6.96481,1.77618 6.90713,2.11573 z" id="path7616" inkscape:connector-curvature="0"/>
      <path style="fill:#000000;fill-rule:evenodd;stroke:none" d="m 236.26959,501.09626 c -88.9205,-15.105 -43.55927,31.67913 -56.56854,38.18376 -14.60028,7.30014 -38.25547,15.62805 -50.91169,28.28427 -66.838717,66.83872 20.0446,44.08623 38.18377,62.2254 5.87562,5.87562 -21.17205,26.18353 -5.65686,33.94113 36.96438,18.48218 38.88126,-14.84604 57.98276,-21.21321 11.87599,-3.95866 27.52731,-3.15705 38.18377,-8.48528 1.76079,-0.88039 4.17667,-15.49038 7.07106,-18.38478 13.90915,-13.90914 50.41923,1.90668 62.2254,-9.89949 8.33584,-8.33584 -12.99686,-17.84689 -11.31371,-21.2132 12.06743,-24.13486 72.11829,-47.84866 -5.65685,-60.81119 -25.99268,-4.33211 -48.9956,-26.718 -73.53911,-22.62741 z" id="path7662" inkscape:connector-curvature="0"/>
      <path style="fill:#ffffff;fill-rule:nonzero;stroke:none" d="m 127.37515,580.008 c 0.22007,0.10812 0.20168,0.68635 -0.0211,1.70954 -0.22278,1.0232 -0.65659,2.49419 -1.19414,4.38148 -0.53756,1.88729 -1.18922,4.19338 -1.64391,6.84001 -0.45469,2.64662 -0.72355,5.63558 -0.12805,8.80938 0.3566,2.02559 1.10615,4.1085 2.41957,5.80403 1.14004,1.53928 2.81632,2.87254 4.79512,3.98291 2.2604,1.2852 4.87316,2.21358 7.7866,2.88821 2.91343,0.67464 6.12814,1.09496 9.52363,1.47263 3.82485,0.38254 7.83857,0.58711 12.03138,0.6676 4.19281,0.0805 8.56479,0.0369 13.09995,-0.0339 2.95608,-0.14467 6.28021,0.74343 9.2472,3.12968 2.44971,2.33758 3.84733,5.15051 4.35478,7.83755 0.6783,3.11775 0.75053,6.16472 0.53963,8.98073 -0.20947,3.1879 -0.69612,6.31489 -1.31612,9.35999 -1.13737,5.5997 -2.73105,11.07091 -4.2698,16.47965 -0.48528,1.7503 -0.96334,3.2676 -1.17276,4.59269 0.0171,0.54511 -0.0758,0.40709 -0.0921,-0.4465 0.22923,-0.35811 -0.38123,-1.27375 -1.7957,-2.80551 -2.14851,-0.9891 -3.54683,-1.23624 -4.24243,-0.69618 2.03057,-0.64015 3.95299,-2.08588 5.49088,-3.91145 0.47077,-0.54982 0.9147,-1.1531 1.34251,-1.80121 1.06406,-1.61204 2.01822,-3.48366 3.0298,-5.46611 1.44075,-2.91265 2.92461,-6.08542 4.89117,-9.2365 1.99049,-3.24097 4.67331,-6.29807 8.13394,-8.64959 2.05785,-1.30236 4.13398,-2.03968 6.04494,-2.39635 2.25817,-0.45544 4.40543,-0.61042 6.39901,-0.62813 4.76235,-0.0573 9.17901,0.40255 13.28988,0.72888 4.34508,0.31522 8.34889,0.61256 11.98874,0.21514 1.62705,-0.18175 3.10826,-0.43929 4.36562,-0.91477 1.13611,-0.43625 2.13504,-0.96997 2.81712,-1.6466 0.54555,-0.62826 1.00298,-1.11406 0.93816,-1.35439 0.14383,-0.23269 -0.0547,-0.81822 -0.30368,-1.57556 -0.34401,-0.87253 -0.98919,-1.81401 -1.73057,-2.88006 -0.71578,-1.00062 -1.58507,-2.09776 -2.45254,-3.37359 -0.70009,-0.80553 -1.51292,-2.30786 -1.94829,-4.5047 0,-10e-6 0,-2e-5 0,-2e-5 -0.16051,-1.0535 0.0307,-2.21394 0.58795,-3.40281 0,0 10e-6,-10e-6 10e-6,-2e-5 0.74889,-1.25509 1.57814,-2.06108 2.36929,-2.46204 2.53488,-1.36579 4.78362,-1.69173 6.45978,-1.75511 3.77342,-0.37138 7.26337,-0.29475 10.47222,-0.17024 5.72263,0.23171 11.0111,-0.0902 15.70036,-0.34327 4.68926,-0.25307 8.77757,-0.45264 12.1222,-0.45896 3.34464,-0.006 5.94495,0.16291 7.69887,0.41717 1.75392,0.25426 2.66233,0.57926 2.66233,0.90059 0,0.32133 -0.90477,0.62475 -2.60893,0.97733 -1.70417,0.35258 -4.20558,0.76849 -7.43645,1.33434 -3.23088,0.56585 -7.19029,1.29931 -11.87132,2.06124 -4.68103,0.76193 -10.08405,1.56777 -16.26706,1.79948 -3.14563,0.12451 -6.36417,0.26015 -9.52595,0.78717 -1.63761,0.36589 -2.92414,0.4687 -3.33813,0.94882 0.0205,0.0815 0.13468,-0.0979 0.46815,-0.53401 0,0 1e-5,0 1e-5,-10e-6 0.20704,-0.49841 0.30133,-0.8531 0.24414,-1.13283 0,0 0,0 0,0 -0.16862,-0.19911 0.22349,0.0611 0.7124,0.93502 0.67174,0.89833 1.53518,1.8753 2.46647,3.0554 0.94378,1.16512 1.93826,2.55805 2.79946,4.28576 0.84601,1.60506 1.35306,3.66542 1.19006,6.07469 -0.41081,2.73877 -1.62793,4.9868 -3.2517,6.52785 -1.6944,1.69985 -3.67159,2.95796 -5.74013,3.77294 -2.18275,0.86767 -4.39296,1.37508 -6.51967,1.64324 -4.66817,0.59837 -9.28373,0.43837 -13.68497,0.18088 -4.2969,-0.22421 -8.46407,-0.59065 -12.45312,-0.4486 -1.66099,0.0656 -3.20531,0.1801 -4.5729,0.50086 -1.13015,0.29436 -2.07459,0.58035 -2.63358,1.02255 -1.95637,1.25982 -3.63166,3.33803 -5.16881,5.73383 -1.52509,2.42819 -2.82708,5.31219 -4.36581,8.40481 -1.01629,2.1048 -2.18173,4.33832 -3.67039,6.55931 -0.59851,0.89294 -1.24688,1.7799 -1.95523,2.65155 -2.58691,3.14701 -6.03688,5.6133 -10.03472,6.98262 -0.88605,0.60354 -2.50931,0.37206 -4.81925,-0.73609 -1.59319,-1.66331 -2.27555,-2.81094 -2.08705,-3.387 -0.17958,-1.72709 -0.0907,-2.764 0.0786,-3.0921 0.39802,-2.16087 0.96837,-4.01773 1.45359,-5.63172 1.59985,-5.47139 3.19968,-10.67112 4.30121,-15.72672 0.60357,-2.77808 1.08562,-5.46513 1.30197,-8.06465 0.16877,-2.34422 0.22627,-4.47245 -0.17161,-6.28665 -0.38675,-1.41093 -0.74552,-2.59233 -1.34906,-2.99389 -0.38447,-0.62042 -1.68386,-0.84251 -3.11255,-0.98718 -4.58392,-0.0708 -9.08144,-0.1959 -13.44871,-0.46748 -4.36726,-0.27159 -8.60419,-0.68961 -12.67246,-1.30315 -3.56133,-0.50025 -7.12159,-1.19639 -10.47616,-2.24298 -3.35458,-1.04659 -6.50372,-2.44282 -9.31851,-4.23872 -2.58238,-1.65868 -4.78273,-3.81959 -6.3593,-6.30409 -1.75251,-2.84565 -2.52636,-5.86028 -2.68675,-8.63418 -0.18519,-4.07395 0.52829,-7.50654 1.4337,-10.3685 0.9054,-2.86196 2.01382,-5.15551 3.00127,-6.94767 0.98745,-1.79215 1.86448,-3.08433 2.52531,-3.91222 0.66083,-0.82789 1.11249,-1.19164 1.33256,-1.08352 z" id="path7664" inkscape:connector-curvature="0"/>
      <path style="fill:#ffffff;fill-rule:nonzero;stroke:none" d="m 200.91425,533.33895 c -0.30758,0.22716 -1.07518,-0.14759 -2.20435,-1.18302 -0.56458,-0.51772 -1.21761,-1.204 -1.90975,-2.09853 -0.69214,-0.89452 -1.42517,-1.9968 -2.09523,-3.37872 -0.46415,-0.96079 -0.88173,-2.09719 -1.1061,-3.45675 -0.16844,-1.01529 -0.18267,-2.16149 0.0787,-3.40597 0.5459,-2.16816 1.8715,-4.16149 3.78039,-5.48589 2.03755,-1.43206 4.41105,-2.36179 6.73689,-2.88426 2.7814,-0.67027 5.75306,-1.01169 8.76837,-1.13863 3.36855,-0.15021 6.90543,-0.0687 10.542,0.17945 7.76916,0.52807 16.18846,1.78392 24.93842,3.52144 6.65884,1.31969 13.56333,2.9069 20.60361,4.74414 11.74676,3.06546 22.78329,6.53457 32.72441,9.98905 0,0 0,0 0,0 7.87059,2.7331 15.08529,5.49306 21.40402,8.1818 0,0 0,1e-5 10e-6,1e-5 2.80541,1.19359 5.44952,2.37986 7.89444,3.56289 0,0 0,0 0,0 1.94125,0.9382 3.81156,1.89385 5.53022,2.90943 0.93821,0.44826 1.79862,1.3286 2.42567,2.55198 0.47248,1.24325 0.51062,2.32829 0.27756,3.19091 -0.61769,2.3035 -1.73628,3.70284 -2.68333,4.68793 -1.49199,1.69975 -2.89281,2.90402 -4.05511,3.84744 -10e-6,0 -10e-6,0 -10e-6,0 -1.24105,1.01492 -2.22628,1.70046 -2.95044,2.12899 -0.72416,0.42853 -1.19909,0.58401 -1.42114,0.40637 -0.22205,-0.17764 -0.17716,-0.68803 0.15318,-1.49158 0.33035,-0.80354 0.96403,-1.89143 1.78875,-3.20205 0,0 0,0 1e-5,0 0.7886,-1.2528 1.7892,-2.70677 2.70728,-4.38459 0.57216,-1.144 1.19402,-2.16879 1.07664,-2.88466 -0.0687,-0.12933 -0.0649,-0.12364 -0.0469,0.17143 0.15962,0.24819 0.12798,0.37745 0.0564,0.32079 -1.63774,-0.66262 -3.45594,-1.29482 -5.44601,-1.97762 0,0 0,0 0,0 -2.47351,-0.84498 -5.14229,-1.71398 -7.99057,-2.62327 0,0 0,0 0,0 -6.41429,-2.04732 -13.663,-4.26417 -21.5497,-6.59767 0,0 -1e-5,0 -1e-5,0 -9.97272,-2.94862 -20.90682,-6.10582 -32.42091,-9.11222 -6.90084,-1.80185 -13.62866,-3.44681 -20.09461,-4.9105 -8.5042,-1.92157 -16.47914,-3.50582 -23.78073,-4.4941 -3.4131,-0.46118 -6.63703,-0.79676 -9.66707,-0.93378 -2.73691,-0.11508 -5.23581,-0.10962 -7.49283,0.17458 -1.91041,0.28003 -3.51411,0.58157 -4.69076,1.22794 -0.90672,0.49628 -1.66722,1.12474 -1.92805,1.79787 -0.21295,0.426 -0.31172,0.97067 -0.35406,1.54165 -0.0538,0.78638 0.0627,1.6159 0.22309,2.42348 0.23873,1.19109 0.58806,2.26173 0.92273,3.20669 0.33467,0.94496 0.6565,1.76392 0.90136,2.44856 0.48973,1.36928 0.66116,2.20183 0.35358,2.42899 z" id="path7668" inkscape:connector-curvature="0"/>
      <path transform="translate(0,52.362183)" inkscape:connector-curvature="0" id="path7672" d="m 219.2031,329.66277 0,36.76955 -32.52691,0 -35.35534,33.94113 -1.41421,43.84062 31.1127,33.94113 53.74011,35.35533 33.94113,-5.65685 33.94112,-33.94113 9.8995,-57.98275 -5.65686,-32.52691 -24.04163,-19.79899 -19.79899,-2.82843 0,-21.2132 12.72792,-21.21321 16.97057,-8.48528 -8.48528,-22.62742 -32.52692,-14.14213 -31.11269,7.07107 -12.72793,21.2132 14.14214,21.2132 z" style="fill:#54007b;fill-opacity:1;stroke:none;filter:url(#filter7706)"/>
      <path style="fill:#333333;fill-rule:evenodd;stroke:none;filter:url(#filter7658)" d="m 355.89562,607.37796 c 47.8178,1.49973 405.51637,-48.44618 418.60721,-35.35534 6.19044,6.19044 -64.85028,15.55635 -74.95332,15.55635 -45.4666,0 -91.4515,7.07107 -137.17871,7.07107 -45.72863,0 -96.08237,9.41406 -141.42136,16.97056 -21.65556,3.60926 -46.58704,-6.29451 -65.05382,-4.24264 -4.91676,0.54631 -4.26345,16.99137 -7.07107,19.79899 -2.89763,2.89763 -64.95384,4.34262 -70.71068,-1.41421 -5.77557,-5.77558 70.90134,-39.026 77.78175,-18.38478 z" id="path7648" inkscape:connector-curvature="0" transform="matrix(0.58775825,-0.48011488,0.33058355,0.4047015,58.140824,567.77069)"/>
      <path transform="translate(0,52.362183)" style="fill:#000000;fill-rule:evenodd;stroke:none" d="m 212,324 c 0.97463,-0.51193 2.66478,0.40923 4.60875,2.6562 0.97199,1.12349 1.99996,2.58635 2.9541,4.40198 0.95414,1.81563 1.83403,3.98679 2.44885,6.50735 0,0 0,0 0,0 0.5548,2.42214 0.90069,5.04468 1.0005,7.7534 0.12337,3.34831 -0.13429,6.50613 -0.60149,9.3153 -0.46721,2.80917 -1.14097,5.27237 -1.87922,7.28894 -0.73825,2.01656 -1.54088,3.58921 -2.31861,4.6324 -0.77773,1.04319 -1.53227,1.55787 -2.21288,1.44443 -1.36122,-0.22687 -2.15189,-2.94166 -2.50345,-7.049 -0.17577,-2.05368 -0.24742,-4.45024 -0.28911,-7.04187 -0.0417,-2.59163 -0.0553,-5.37527 -0.15192,-8.23743 -0.0782,-2.31543 -0.20972,-4.50822 -0.39525,-6.55805 0,0 0,0 0,0 -0.11523,-1.88935 -0.39217,-3.69961 -0.6723,-5.38484 -0.28014,-1.68524 -0.56251,-3.24329 -0.73546,-4.6006 C 210.90662,326.41358 211.02537,324.51193 212,324 z" id="path7508" inkscape:connector-curvature="0"/>
      <path transform="translate(0,52.362183)" style="fill:#000000;fill-rule:evenodd;stroke:none" d="m 280,332 c -0.15999,0.58473 -0.78696,1.00862 -1.64036,1.4019 -0.8534,0.39327 -1.95651,0.73059 -2.67072,1.416 0,0 0,0 0,0 -0.45314,0.41646 -0.83384,1.01964 -1.03519,1.62595 -0.3103,0.64681 -0.48539,1.59422 -0.79253,2.83137 -0.28717,1.33865 -0.47458,2.88831 -0.70314,4.66012 -0.11387,0.91658 -0.22536,1.86513 -0.342,2.844 -0.39745,3.33537 -0.83917,6.67576 -1.53535,9.69355 -0.409,1.84886 -0.92369,3.60973 -1.52955,5.15326 -0.60586,1.54352 -1.30028,2.86817 -2.00948,3.89507 -0.70919,1.0269 -1.42951,1.7565 -2.07598,2.16886 -0.64647,0.41236 -1.21579,0.50988 -1.6657,0.30992 -0.44991,-0.19996 -0.75233,-0.67858 -0.96103,-1.36062 -0.2087,-0.68205 -0.32775,-1.56816 -0.41726,-2.63415 -0.0895,-1.06599 -0.15227,-2.31409 -0.20183,-3.74858 -0.0496,-1.4345 -0.0865,-3.05814 -0.0518,-4.86542 0.0163,-2.85321 0.0835,-6.15415 0.52155,-9.79988 0.12856,-1.06994 0.28698,-2.134 0.47979,-3.18316 0.36398,-2.02624 0.92179,-4.1029 1.73066,-6.05289 0.7145,-1.82824 1.89074,-3.66599 3.38863,-5.14798 1.74304,-1.68283 3.8561,-2.45492 5.70662,-2.59309 0,0 0,0 0,0 1.19683,-0.0314 2.17078,0.14862 2.9557,0.41109 0.78493,0.26248 1.3819,0.60802 1.82625,0.96222 0.8887,0.70842 1.18272,1.42773 1.02273,2.01246 z" id="path7512" inkscape:connector-curvature="0"/>
      <path transform="translate(0,52.362183)" style="fill:#000000;fill-rule:evenodd;stroke:none" d="m 196,364 c 0.0651,0.21212 -0.50797,0.61251 -1.66594,1.20925 -1.15797,0.59673 -2.90206,1.38943 -5.15636,2.43249 -2.2543,1.04306 -5.02067,2.33532 -8.17666,3.98927 -3.15598,1.65396 -6.70359,3.66812 -10.44416,6.23305 -2.66344,1.82864 -5.42737,3.9389 -8.1299,6.40695 -2.70252,2.46805 -5.34453,5.29381 -7.68632,8.5678 -3.32052,4.62438 -6.06222,10.19933 -7.43708,16.43368 -1.21571,5.43163 -1.38982,11.41635 -0.51326,17.54043 0.85626,5.98224 2.74408,12.10618 5.44333,18.17057 2.71941,6.09681 6.28392,12.1024 10.52028,17.92148 4.17269,5.72899 8.97301,11.25333 14.35081,16.46182 5.37779,5.20849 11.3329,10.10102 17.77236,14.56331 11.67518,8.04999 24.92672,14.77514 39.32312,18.02331 1.57823,0.35694 3.16762,0.67189 4.76472,0.93911 4.91633,0.82256 9.82748,1.1782 14.63417,0.94913 6.21677,-0.29568 12.28542,-1.5419 17.77885,-3.82292 5.83734,-2.40175 11.11401,-6.00476 15.52444,-10.32914 5.3467,-5.21729 9.48206,-11.56067 12.71873,-18.18021 4.33804,-8.88774 7.00269,-18.30458 8.84856,-27.51464 0,-10e-6 0,-10e-6 0,-2e-5 2.65508,-13.30141 3.50466,-26.15793 3.73414,-37.99472 0.0774,-5.22354 -0.0128,-10.21517 -0.47458,-14.87487 -0.46182,-4.65969 -1.29418,-8.98806 -2.56681,-12.94078 -0.9645,-2.9891 -2.21248,-5.75168 -3.69517,-8.1612 -1.48269,-2.40953 -3.19989,-4.46704 -5.08839,-6.13092 -2.06368,-1.86762 -4.3341,-3.29401 -6.57457,-4.47582 -2.24048,-1.1818 -4.45265,-2.11757 -6.49963,-2.92266 0,0 0,0 -1e-5,0 -2.44473,-0.9519 -4.67414,-1.7294 -6.60826,-2.42989 -1.93411,-0.70049 -3.57432,-1.31992 -4.88415,-1.86743 C 273.19259,361.10139 271.89567,360.31299 272,360 c 0.10433,-0.31299 1.58933,-0.1414 4.35589,0.34569 1.38328,0.24355 3.0899,0.56225 5.11235,0.97498 2.02245,0.41273 4.36188,0.91538 6.99671,1.62422 1e-5,0 1e-5,0 1e-5,0 2.22357,0.59115 4.66854,1.35366 7.24213,2.44912 2.57358,1.09546 5.27749,2.52247 7.93149,4.53851 2.40419,1.86993 4.63553,4.19111 6.58164,6.91748 1.94612,2.72637 3.60671,5.85896 4.87389,9.26413 1.63226,4.37047 2.80157,9.12087 3.54997,14.14702 0.7484,5.02614 1.07467,10.32838 1.15209,15.73885 0.22948,12.13907 -0.25804,25.4955 -2.70645,39.59994 0,0 0,10e-6 0,10e-6 -1.6887,9.7707 -4.38325,19.97436 -9.00572,29.93309 -3.45325,7.45123 -8.11218,14.74544 -14.34801,21.03505 -5.1975,5.22082 -11.47919,9.5822 -18.55352,12.56816 -6.65127,2.78666 -13.83755,4.32468 -21.10908,4.67093 -5.59703,0.26605 -11.21985,-0.12066 -16.75824,-1.04584 -1.79918,-0.30055 -3.58018,-0.6562 -5.33956,-1.06104 -15.96814,-3.68222 -30.33686,-11.01397 -42.69155,-19.7758 -6.83715,-4.82632 -13.142,-10.14114 -18.8185,-15.81138 -5.67649,-5.67023 -10.7245,-11.69567 -15.09312,-17.94441 -4.4488,-6.3604 -8.17368,-13.00958 -11.00158,-19.80092 -2.81913,-6.75655 -4.70976,-13.70263 -5.47986,-20.55379 -0.79243,-7.04569 -0.30176,-13.96327 1.36346,-20.27137 1.93539,-7.25487 5.38611,-13.50335 9.44079,-18.55108 2.85777,-3.5449 5.95627,-6.50285 9.064,-9.00673 3.10772,-2.50388 6.22557,-4.55373 9.20003,-6.26173 4.16472,-2.39404 8.04565,-4.15777 11.47753,-5.5147 3.43187,-1.35693 6.41673,-2.30559 8.85772,-2.98049 2.44098,-0.67489 4.33984,-1.07471 5.63945,-1.26617 1.29961,-0.19146 2.00093,-0.17385 2.06604,0.0383 z" id="path7516" inkscape:connector-curvature="0"/>
      <path transform="translate(0,52.362183)" style="fill:#000000;fill-rule:evenodd;stroke:none" d="m 228,308 c -0.57878,-0.6771 -0.0498,-2.21879 1.29433,-4.4182 0.67207,-1.0997 1.55106,-2.36873 2.64591,-3.77683 1.09485,-1.4081 2.40573,-2.95688 3.98484,-4.57954 1.41666,-1.49778 3.10668,-3.08314 5.16489,-4.57394 2.05822,-1.49081 4.48734,-2.88577 7.35651,-3.90888 1.15791,-0.39756 2.38658,-0.69561 3.66797,-0.86947 1.4152,-0.19202 2.85996,-0.22732 4.30078,-0.0991 3.16555,0.33649 5.95078,1.42073 8.22307,2.86145 3.04571,2.00063 5.31017,4.30855 7.01194,6.52995 1.70177,2.2214 2.84669,4.35786 3.61619,6.18928 0.7695,1.83141 1.16526,3.36297 1.27443,4.4947 0.10917,1.13174 -0.0704,1.86835 -0.54086,2.15061 -0.47043,0.28226 -1.20046,0.0884 -2.14759,-0.49195 -0.94714,-0.58038 -2.11093,-1.5527 -3.45822,-2.7658 -1.34728,-1.2131 -2.87453,-2.66944 -4.59128,-4.09347 -1.71675,-1.42403 -3.61952,-2.81265 -5.81583,-3.76968 -1.44211,-0.65501 -2.96087,-1.14165 -4.4085,-1.1946 -0.65747,-0.0489 -1.35692,-0.0134 -2.08456,0.0931 -0.65883,0.0964 -1.326,0.24843 -1.98755,0.43857 -1.78119,0.47898 -3.49763,1.34299 -5.18438,2.33315 -1.68676,0.99015 -3.34231,2.10407 -4.94312,3.14883 -1.70523,1.14472 -3.30431,2.24466 -4.78051,3.19184 -1.4762,0.94717 -2.82793,1.74162 -4.00789,2.32309 C 230.23064,308.37598 228.57878,308.6771 228,308 z" id="path7524" inkscape:connector-curvature="0"/>
      <path style="fill:#000000;fill-rule:evenodd;stroke:none" d="m 468.11057,642.70668 c -0.0585,-0.0795 0.52938,-0.65213 1.68815,-1.72885 1.15879,-1.07674 2.87446,-2.67205 5.12773,-4.77746 2.7065,-2.53005 6.16452,-5.79143 10.32151,-9.74676 3.72957,-3.54872 8.02098,-7.64755 12.83036,-12.26675 4.80936,-4.6192 10.13612,-9.75936 15.95447,-15.37522 0,0 10e-6,-10e-6 10e-6,-10e-6 10.00392,-9.6559 21.44667,-20.71742 34.14305,-32.98921 12.69637,-12.27179 26.64572,-25.75456 41.7064,-40.21529 12.26262,-11.77416 25.25635,-24.20281 38.93293,-37.13382 10.94152,-10.34519 22.31884,-21.0274 34.19285,-31.8861 4.59819,-4.20504 9.27758,-8.44119 14.0635,-12.67576 3.70632,-3.2798 7.48963,-6.57695 11.40116,-9.82706 2.62644,-2.18739 5.38187,-4.43522 8.38041,-6.55312 0,0 2e-5,-2e-5 2e-5,-2e-5 0.9132,-0.65156 1.95646,-1.34809 3.15242,-2.01118 10e-6,-10e-6 2e-5,-10e-6 3e-5,-10e-6 0.41298,-0.23237 0.92005,-0.48084 1.52097,-0.72255 0.41499,-0.19048 1.03089,-0.35675 1.83057,-0.4568 0.53954,-0.099 1.20371,0.021 1.95436,0.38899 0.63725,0.46145 0.97712,1.03418 1.02131,1.68955 -0.0466,1.48041 -0.37799,2.48987 -0.75791,2.93255 -0.501,0.93436 -1.0314,1.72722 -1.51677,2.38532 -10e-6,10e-6 -2e-5,10e-6 -3e-5,3e-5 -0.67616,0.93647 -1.37152,1.81943 -2.05787,2.65735 -1.80809,2.21041 -3.69604,4.32812 -5.58313,6.38931 -2.27297,2.48495 -4.59525,4.93456 -6.94109,7.36268 -4.72326,4.88947 -9.57849,9.74017 -14.54722,14.55031 -1.91652,1.85563 -3.86177,3.717 -5.85258,5.56754 0,0 -10e-6,10e-6 -2e-5,2e-5 -1.15804,1.08191 -2.42153,2.26666 -3.87304,3.45911 -2.59687,2.12124 -5.1817,4.27804 -7.75827,6.46523 -10.67681,9.06319 -20.95197,18.418 -31.11831,27.64885 -13.14664,11.94266 -26.14346,23.70377 -39.46188,34.55023 -14.80915,12.04209 -28.30981,24.75303 -41.04692,37.34334 -12.73712,12.59032 -24.71209,25.05789 -36.26312,36.82725 -3.32054,3.35634 -6.87491,6.26322 -10.46593,8.89576 -3.59101,2.63252 -7.2187,4.99072 -10.71542,7.22661 -3.58331,2.30897 -7.06705,4.50658 -10.36151,6.77868 -3.06365,2.12183 -5.9445,4.25159 -8.40223,6.5776 0.26831,-0.34326 0.38833,-0.47875 0.35107,-0.52383 -0.0497,0.0646 -0.0131,0.26888 0.006,0.61046 0.10515,0.90509 0.52253,1.80844 0.96012,2.82742 0.46486,1.03838 1.00952,2.10282 1.4778,3.28215 0.19132,0.47042 0.37822,1.01106 0.50698,1.64301 0.13475,0.384 0.16161,1.06574 -0.0624,2.0451 -2e-5,2e-5 -3e-5,6e-5 -5e-5,8e-5 -0.5038,1.19188 -0.95983,1.8325 -1.17704,1.93601 -0.51687,0.60279 -1.02219,1.1232 -1.4847,1.58073 -1.50838,1.50283 -3.03703,2.88625 -4.52212,4.20682 -4.52669,4.03037 -9.02522,7.76159 -13.39711,11.27734 -4.84069,3.89527 -9.58959,7.57243 -14.28791,10.86629 -1.83354,1.28806 -3.71209,2.55608 -5.6606,3.68125 -0.69218,0.40224 -1.4443,0.80652 -2.25554,1.16358 0,0 0,0 -10e-6,10e-6 -0.50557,0.25264 -1.2247,0.49959 -2.10101,0.60583 -2e-5,0 -3e-5,0 -5e-5,-1e-5 -0.53963,0.0491 -1.02037,-0.087 -1.40783,-0.40663 -1e-5,0 -1e-5,-10e-6 -3e-5,-3e-5 -0.33863,-0.37108 -0.49211,-0.73933 -0.49324,-1.06511 -0.0412,-0.89583 0.15884,-1.65785 0.39191,-2.21487 0.33379,-0.94424 0.74565,-1.8286 1.16422,-2.65256 0.56579,-1.12165 1.17222,-2.20205 1.78732,-3.24544 1.65287,-2.80488 3.40236,-5.43304 5.13382,-7.90629 2.2321,-3.18998 4.46452,-6.1448 6.64049,-8.86482 2.55624,-3.19616 5.04847,-6.07832 7.43166,-8.6195 2.62959,-2.8065 5.15583,-5.21674 7.50332,-7.1455 1.24438,-1.02952 2.4679,-1.94606 3.62594,-2.68808 1.158,-0.74203 2.25044,-1.31197 3.24186,-1.72078 1.14302,-0.47108 2.1528,-0.68594 2.93652,-0.71883 0.73231,0.0223 1.25238,0.18453 1.60409,0.33295 0.35171,0.1484 0.5405,0.28443 0.60983,0.35383 0,0 -2e-5,10e-6 -2e-5,10e-6 -0.0227,0.0289 -0.0227,0.0289 -0.0227,0.0289 0,0 -4e-5,6e-5 -0.0227,0.0289 0,0 -1e-5,0 -1e-5,0 -0.10948,-0.0137 -0.33828,-0.0777 -0.72209,-0.10945 -0.3838,-0.0318 -0.92887,-0.0313 -1.65273,0.14722 -0.69887,0.12617 -1.56621,0.41724 -2.55675,0.9147 -0.87424,0.43812 -1.82594,1.02165 -2.84449,1.76911 -1.01858,0.74746 -2.10385,1.66121 -3.25432,2.69408 -2.13905,1.93498 -4.43544,4.32423 -6.88092,7.12918 -2.20801,2.53526 -4.51859,5.39748 -6.90339,8.57278 -2.02852,2.70167 -4.10661,5.62245 -6.17848,8.76011 -1.60934,2.43836 -3.21781,4.99262 -4.70216,7.66625 -0.55164,0.99405 -1.08095,1.9927 -1.55366,2.99463 -0.35182,0.75137 -0.67036,1.46968 -0.88092,2.14254 -0.11375,0.47325 -0.23992,0.7817 -0.17406,0.82465 0.0328,-0.0294 -0.031,-0.11568 -0.16429,-0.30071 0,-1e-5 -10e-6,-1e-5 -2e-5,-1e-5 -0.20479,-0.15429 -0.40616,-0.22167 -0.6403,-0.19768 0,0 -1e-5,-10e-6 -2e-5,0 -0.0179,0.0358 0.18263,-0.0858 0.56905,-0.23059 0,0 10e-6,-10e-6 10e-6,-10e-6 0.50828,-0.23094 1.05896,-0.54852 1.66081,-0.9073 1.67883,-1.00797 3.37468,-2.20647 5.13794,-3.48695 4.476,-3.25771 9.03739,-6.91736 13.76159,-10.83782 4.2583,-3.53627 8.61175,-7.25433 12.94933,-11.22542 1.43515,-1.31545 2.84208,-2.61972 4.14753,-3.95969 0.41001,-0.42401 0.77096,-0.79861 1.04791,-1.13906 0.20685,-0.40035 0.23886,-0.28589 -0.10363,0.3509 -1e-5,10e-6 -1e-5,2e-5 -3e-5,4e-5 0.004,0.19553 -0.0706,0.15079 -0.0753,-0.14992 -0.067,-0.32942 -0.21115,-0.68635 -0.37943,-1.09678 -0.42008,-0.99673 -0.97105,-2.0021 -1.50238,-3.11753 -0.49589,-0.9992 -1.01688,-2.15491 -1.27489,-3.60878 -0.11525,-0.53279 -0.13393,-1.2551 0.0514,-2.17502 0.14802,-0.82112 0.68791,-1.78594 1.64224,-2.78284 2.91207,-2.79097 6.11149,-5.23691 9.32628,-7.49274 3.4628,-2.43941 7.00987,-4.7314 10.52889,-7.04637 3.444,-2.28283 6.91518,-4.58424 10.22801,-7.03817 3.31282,-2.45394 6.46728,-5.0604 9.24864,-7.97671 11.39584,-11.81956 23.29912,-24.38921 36.09083,-37.16813 12.79171,-12.77892 26.47386,-25.76557 41.6219,-38.19429 12.99968,-10.65169 25.81156,-22.30877 38.94334,-34.26683 10.14814,-9.24555 20.50791,-18.68767 31.38055,-27.91699 2.62386,-2.22725 5.26207,-4.42849 7.91833,-6.59832 1.05615,-0.85626 2.14523,-1.88776 3.34708,-2.99809 0,0 2e-5,-10e-6 2e-5,-10e-6 1.91463,-1.77745 3.80794,-3.5872 5.6964,-5.41231 4.89249,-4.72914 9.66935,-9.4903 14.31271,-14.28258 2.30417,-2.37832 4.56499,-4.75438 6.75748,-7.14285 1.83225,-1.99794 3.59833,-3.96629 5.2196,-5.944 0.61429,-0.75048 1.18785,-1.47122 1.69308,-2.1716 0,-10e-6 0,-2e-5 0,-2e-5 0.37766,-0.53764 0.67974,-0.95897 0.83294,-1.27299 0.0201,-0.32057 0.0872,-0.13245 -0.0353,0.65417 0.0186,0.42128 0.25349,0.78934 0.70195,1.13319 0.53808,0.23561 0.90635,0.33031 1.14349,0.2561 0.34998,-0.0631 0.49054,-0.0782 0.44006,-0.0873 -0.0437,0.01 -0.17281,0.0806 -0.38613,0.18992 0,0 -1e-5,0 -1e-5,0 -0.62872,0.33245 -1.33799,0.818 -2.14748,1.37659 0,0 -10e-6,1e-5 -2e-5,2e-5 -2.5863,1.80533 -5.12388,3.87461 -7.7186,6.01173 -3.79195,3.13041 -7.50363,6.34486 -11.18314,9.57651 -4.74246,4.16581 -9.39787,8.34719 -13.98997,12.51017 -11.85941,10.75129 -23.26061,21.34242 -34.25712,31.60759 -13.7411,12.82736 -26.82575,25.14994 -39.20025,36.81331 -15.1952,14.32198 -29.30974,27.65807 -42.19264,39.7715 -12.88288,12.11343 -24.53337,23.00478 -34.75827,32.47625 -1e-5,10e-6 -1e-5,10e-6 -1e-5,10e-6 -5.94524,5.50721 -11.40921,10.53917 -16.36014,15.04617 -4.95093,4.50701 -9.38823,8.48961 -13.26427,11.91567 -4.31955,3.81814 -7.95352,6.94514 -10.82899,9.3274 -2.38412,1.97551 -4.25559,3.45478 -5.55004,4.39487 -1.29444,0.94013 -2.00143,1.3586 -2.06032,1.27939 z" id="path7600" inkscape:connector-curvature="0"/>
      <path style="fill:#000000;fill-rule:evenodd;stroke:none" d="m 448.36902,662.64963 c -0.15177,-0.33407 -0.13185,-0.75224 -0.0227,-1.20169 0.10917,-0.44944 0.30615,-0.932 0.56269,-1.44372 0.25656,-0.51173 0.57452,-1.05538 0.97669,-1.64026 0.40217,-0.58487 0.89211,-1.21311 1.50168,-1.86968 0.11415,-0.12294 0.23041,-0.24463 0.34863,-0.3647 10e-6,-1e-5 10e-6,-1e-5 10e-6,-1e-5 0.54403,-0.57235 1.1401,-1.14866 1.76498,-1.67111 0.62507,-0.52222 1.27602,-0.98784 1.89319,-1.33448 0.61721,-0.3466 1.19784,-0.57282 1.68571,-0.65001 0.48785,-0.0772 0.88184,-0.006 1.15986,0.20418 0.27805,0.21061 0.4195,0.53743 0.46217,0.93475 0.0427,0.39727 -0.0117,0.86559 -0.15856,1.39654 -0.14686,0.53094 -0.38725,1.12712 -0.75331,1.7918 -0.36608,0.66468 -0.8608,1.40077 -1.52119,2.18013 0,0 0,0 0,0 -0.11841,0.14553 -0.24264,0.29208 -0.3727,0.43925 -0.69452,0.7859 -1.49475,1.51411 -2.31321,2.11208 -0.81849,0.59795 -1.65132,1.06342 -2.39254,1.35458 -0.74124,0.29115 -1.3876,0.4078 -1.8699,0.35852 -0.4823,-0.0493 -0.79979,-0.2621 -0.95154,-0.59617 z" id="path7604" inkscape:connector-curvature="0"/>
      <path transform="translate(0,52.362183)" style="fill:#000000;fill-rule:evenodd;stroke:none" d="m 229.1026,277.33687 c 0.003,0.21689 -0.31479,0.42943 -0.90708,0.67327 -0.59229,0.24385 -1.46007,0.52119 -2.54793,0.92117 -1.08786,0.39999 -2.39808,0.92488 -3.83965,1.6837 -1.44157,0.75883 -3.01716,1.7537 -4.56246,3.08034 -1.3317,1.13814 -2.65349,2.52067 -3.86034,4.16378 -1.20685,1.64311 -2.29918,3.54789 -3.14174,5.67475 -1.29904,3.33128 -2.03429,7.25224 -1.401,11.12109 0.52281,3.35879 2.18847,6.80958 4.87146,9.28383 0,0 0,10e-6 0,10e-6 5.53234,5.20219 12.44916,9.88008 20.47607,12.48047 6.30582,2.07011 13.35645,2.88859 20.46459,2.17073 3.77376,-0.40797 7.59731,-1.19928 11.31777,-2.40014 4.07577,-1.31555 7.91051,-3.08646 11.33898,-5.26304 3.42847,-2.17658 6.45015,-4.75885 8.94395,-7.69177 2.96249,-3.57301 5.19608,-7.44203 5.51034,-11.19981 0.19548,-1.75782 0.0387,-3.53264 -0.46828,-5.1211 -0.54667,-1.81928 -1.62584,-3.54871 -2.93903,-5.08538 -2.1011,-2.53245 -4.85119,-4.42331 -7.79444,-5.96448 -2.94326,-1.54116 -6.07969,-2.73215 -9.09294,-3.76789 -5.12738,-1.69702 -9.96081,-2.77474 -14.27648,-3.58087 -4.31566,-0.80613 -8.11443,-1.33788 -11.23808,-1.78552 -3.12365,-0.44764 -5.57394,-0.8076 -7.2382,-1.16193 -1.66425,-0.35433 -2.54445,-0.70067 -2.54445,-1.05964 0,-0.35897 0.87967,-0.71341 2.56424,-1.03612 1.68457,-0.32271 4.17512,-0.61645 7.39744,-0.78292 3.22232,-0.16647 7.17838,-0.20919 11.77105,0.0905 4.59267,0.29973 9.82394,0.93953 15.54366,2.30395 3.36977,0.76577 7.0076,1.84734 10.66286,3.54116 3.65527,1.69381 7.32853,4.00023 10.62481,7.30949 2.11362,2.17225 3.92451,4.8622 5.0998,8.03199 1.01334,2.81634 1.42927,5.85646 1.19185,8.90339 -0.58814,6.25782 -3.41178,12.04906 -7.34429,16.64009 -3.12516,3.72022 -6.8331,6.99448 -10.98821,9.73053 -4.1551,2.73605 -8.75683,4.93367 -13.62257,6.51709 -4.44157,1.44539 -8.98701,2.34279 -13.46859,2.72831 -8.55331,0.78751 -16.98446,-0.36723 -24.51588,-3.05986 -9.57746,-3.45898 -17.41188,-9.20886 -23.36805,-15.49518 -1e-5,0 -1e-5,0 -1e-5,0 -3.96979,-4.17854 -6.05168,-9.40491 -6.46155,-14.4327 -0.42019,-5.60398 0.98215,-10.65187 3.09145,-14.68944 1.33689,-2.58508 2.96951,-4.79406 4.70873,-6.62115 1.73922,-1.8271 3.58524,-3.27352 5.39432,-4.3863 2.13033,-1.30759 4.19819,-2.12504 6.02986,-2.62565 1.83168,-0.50062 3.42991,-0.6865 4.71772,-0.71473 1.28781,-0.0282 2.26772,0.0993 2.91958,0.27149 0.65186,0.17214 0.97742,0.38757 0.98072,0.60446 z" id="path7612" inkscape:connector-curvature="0"/>
      <path transform="translate(0,52.362183)" style="fill:#000000;fill-rule:nonzero;stroke:none" d="m 356.38182,640.78976 c 0.52472,0.13599 -1.00632,7.97343 -3.9661,22.42234 -1.47989,7.22445 -3.30779,16.10575 -5.50993,26.49508 -2.20215,10.38932 -4.77021,22.28885 -7.96289,35.50175 -2.71513,11.25953 -5.85352,23.5309 -9.92489,36.51286 -4.07137,12.98197 -9.07267,26.6767 -15.86467,40.59438 -1e-5,10e-6 -1e-5,10e-6 -1e-5,10e-6 -0.2714,0.47453 -0.36933,1.24244 -0.45409,2.17025 -10e-6,10e-6 -10e-6,10e-6 -10e-6,2e-5 -0.0688,1.07508 0.047,2.27138 0.22271,3.57216 0.38863,2.79724 1.19635,5.75095 1.94085,8.96768 0.64616,2.40343 1.38905,5.44687 1.07543,9.11796 0,10e-6 0,3e-5 0,4e-5 -0.0363,1.3938 -0.70453,3.09072 -2.20176,4.797 -1e-5,10e-6 -3e-5,3e-5 -5e-5,5e-5 -1.92516,0.21362 -3.86302,-0.53853 -5.43785,-2.06118 -1e-5,-1e-5 -1e-5,-1e-5 -2e-5,-2e-5 -0.009,-0.12819 -0.0181,-0.25627 -0.0273,-0.38436 0.007,-0.0934 0.0132,-0.18687 0.0197,-0.28031 0.0173,-0.24189 0.0347,-0.48382 0.0521,-0.72578 0.0648,-0.90406 0.12967,-1.80862 0.19453,-2.71367 0.23477,-0.002 0.4697,-0.004 0.70478,-0.005 0.76628,-0.006 1.53424,-0.0115 2.30388,-0.0172 1.73738,-0.0129 3.48331,-0.0257 5.23767,-0.0383 10.56448,-0.0732 21.49185,-0.79606 32.79923,-1.57062 11.30738,-0.77456 22.99488,-1.60057 35.08299,-1.66291 1e-5,0 2e-5,0 3e-5,0 26.20961,-0.12428 53.6446,0.72199 82.02045,1.71278 28.37585,0.99079 57.69211,2.11799 87.68518,2.10369 2.57068,-3.5e-4 5.09051,0.0672 7.559,0.11984 3.40709,0.0719 6.82078,0.15337 10.24073,0.23995 1.18536,0.03 2.3694,0.0606 3.55211,0.0915 12.63135,0.33035 25.14136,0.70764 37.51026,1.12907 12.04779,0.41034 23.98328,0.84526 35.77929,1.44097 3.87368,0.19507 7.77698,0.39822 11.6992,0.7136 1.07958,0.0846 2.25005,0.18296 3.50215,0.35492 10e-6,0 2e-5,0 3e-5,0 0.29344,0.0317 0.76027,0.10817 1.39228,0.2594 0.11928,0.001 0.51031,0.13868 1.16657,0.42469 -0.55511,-0.0565 -0.56046,2.23243 -0.0671,6.87762 -0.16501,0.0763 -0.33605,0.15148 -0.5053,0.22049 -0.29833,0.12164 -0.58679,0.23633 -0.8631,0.35304 -1.12793,0.47645 -2.06436,0.97091 -2.81309,1.50218 -0.60267,-0.25191 -1.04637,-0.47402 -1.34417,-0.63597 -1e-5,0 -3e-5,-10e-6 -4e-5,-2e-5 -1.25155,-0.65047 -2.41384,-1.31648 -3.51246,-1.95064 -10e-6,-1e-5 -2e-5,-1e-5 -3e-5,-2e-5 -3.50657,-2.01926 -6.93103,-4.08293 -10.30916,-6.12951 -3.57105,-2.16307 -7.11159,-4.33212 -10.62216,-6.5043 -1.26939,-0.78542 -2.53914,-1.57362 -3.80684,-2.36819 -10e-6,-1e-5 -10e-6,-1e-5 -2e-5,-2e-5 -0.60338,-0.37687 -1.28661,-0.79494 -2.0259,-1.28881 -5.97805,-4.01853 -11.45089,-8.35662 -16.8123,-12.46557 -7.42669,-5.68428 -14.70974,-11.26113 -21.99037,-16.52858 -7.24786,-5.23682 -14.38738,-10.20348 -21.71974,-14.3498 -2.96647,-1.67177 -5.87454,-3.19119 -8.8046,-4.32179 -10e-6,0 -2e-5,-1e-5 -3e-5,-1e-5 -2.23679,-0.80166 -4.17282,-1.50026 -5.79101,-1.442 -2.39599,-0.0611 -4.43073,-0.56462 -6.09852,-1.15218 -10e-6,0 -2e-5,-10e-6 -3e-5,-10e-6 -2.48754,-0.81463 -4.79007,-1.81872 -6.95192,-2.86094 -6.16515,-2.9609 -11.84452,-6.3871 -17.25938,-9.81459 -15.80642,-9.98991 -30.02211,-20.53235 -43.18876,-30.57333 -15.74993,-12.00699 -29.9751,-23.51603 -42.62516,-34.20193 -5.81233,-4.90963 -11.29979,-9.65663 -16.41038,-14.25467 -3.7709,-3.39067 -7.40751,-6.71435 -10.70066,-10.12332 -1e-5,-10e-6 -1e-5,-10e-6 -2e-5,-2e-5 -2.2731,-2.37621 -4.75491,-4.42685 -7.27717,-6.28647 -2.52227,-1.85962 -5.08543,-3.52781 -7.57139,-5.09659 -6.67483,-4.19527 -12.8619,-7.49679 -18.15019,-10.34355 -3.16906,-1.70526 -6.04984,-3.21928 -8.56609,-4.60933 -2.51626,-1.39006 -4.67012,-2.65231 -6.44159,-3.76947 -0.94847,-0.59579 -1.80919,-1.15776 -2.54081,-1.69746 -0.73162,-0.5397 -1.33589,-1.05519 -1.81302,-1.52421 -0.47867,-0.4629 -0.84647,-0.93887 -1.0392,-1.34513 0,0 0,0 0,0 -0.17576,-0.32273 -0.18569,-0.65727 -0.13488,-0.84666 0.0508,-0.18939 0.14171,-0.25296 0.19348,-0.2357 0.0518,0.0173 0.0681,0.1065 0.1245,0.23 0.0564,0.12349 0.18113,0.28495 0.35799,0.49269 0,0 0,0 0,10e-6 0.25079,0.26099 0.6317,0.53685 1.15903,0.88534 0.52533,0.33951 1.1622,0.71538 1.92484,1.11699 0.76264,0.40161 1.65256,0.82685 2.65941,1.31243 1.86138,0.89196 4.09328,1.9262 6.69358,3.09524 2.6003,1.16905 5.57098,2.46899 8.8717,3.98646 5.47851,2.5164 11.8927,5.52005 18.93336,9.51394 2.60907,1.47333 5.33607,3.08775 8.08344,4.95784 2.74736,1.87009 5.51554,3.99545 8.15992,6.53672 10e-6,10e-6 10e-6,10e-6 10e-6,10e-6 3.25852,3.1427 6.9035,6.24854 10.76754,9.51198 5.20028,4.38823 10.77734,8.93412 16.68853,13.66055 12.86509,10.28607 27.26272,21.40307 43.13886,33.03241 13.29664,9.73682 27.51548,19.92659 43.12033,29.47312 5.36949,3.27992 10.81466,6.47833 16.52096,9.11585 2.00565,0.92311 3.96748,1.76166 5.91834,2.36149 10e-6,0 2e-5,10e-6 3e-5,10e-6 1.4212,0.39686 2.58308,0.74308 3.45332,0.68194 3.42072,0.0583 6.42636,0.92057 8.9501,1.93595 10e-6,10e-6 3e-5,10e-6 4e-5,2e-5 3.53894,1.33856 6.86013,3.00783 10.02607,4.76575 7.85377,4.34685 15.3398,9.42917 22.71924,14.67564 7.46485,5.30054 14.86653,10.87074 22.33407,16.50012 5.48254,4.12812 10.83192,8.32022 16.41593,12.00973 0.50825,0.33783 1.10953,0.69753 1.78167,1.11473 10e-6,0 2e-5,1e-5 3e-5,2e-5 1.24901,0.77218 2.50789,1.54307 3.77437,2.31636 3.49981,2.13687 7.02721,4.27073 10.58269,6.39872 3.37741,2.0211 6.75132,4.03215 10.15519,5.97032 10e-6,10e-6 2e-5,10e-6 4e-5,2e-5 1.09811,0.62385 2.13783,1.21656 3.14299,1.72985 10e-6,10e-6 2e-5,10e-6 3e-5,2e-5 0.31153,0.15227 0.47826,0.2459 0.51216,0.25005 -0.58973,0.59523 -1.36587,1.1553 -2.32496,1.66138 -0.23494,0.12397 -0.48019,0.24564 -0.73805,0.35604 -0.1463,0.0626 -0.29804,0.11775 -0.46305,0.17026 0.49337,4.57426 0.40537,6.82378 -0.21336,6.73592 0.51951,0.2186 0.76203,0.31602 0.73359,0.27947 0.0775,0.009 -0.0244,0.006 -0.29845,-0.0408 -10e-6,0 -2e-5,-10e-6 -3e-5,-10e-6 -0.88058,-0.12192 -1.86043,-0.19504 -2.93244,-0.27943 -3.73757,-0.28612 -7.54338,-0.46791 -11.41042,-0.64982 -11.70838,-0.549 -23.59235,-0.94871 -35.62924,-1.33595 -12.34638,-0.39704 -24.83329,-0.76058 -37.4412,-1.08827 -1.18075,-0.0307 -2.36229,-0.0611 -3.5446,-0.091 -3.41114,-0.0864 -6.8115,-0.16835 -10.20085,-0.24144 -2.50911,-0.0536 -4.95735,-0.12201 -7.34577,-0.12236 -30.25895,-0.0143 -59.68794,-1.23041 -88.04972,-2.36499 -28.36178,-1.13458 -55.65704,-2.17954 -81.65591,-2.30382 -10e-6,0 -2e-5,0 -3e-5,0 -11.68875,-0.0623 -23.21092,0.63432 -34.53609,1.27411 -11.32516,0.63979 -22.45319,1.22244 -33.34613,1.14922 -1.75436,-0.0127 -3.50029,-0.0254 -5.23767,-0.0383 -0.76964,-0.006 -1.5376,-0.0114 -2.30388,-0.0172 -0.23508,-0.002 -0.47001,-0.004 -0.70478,-0.005 -0.0649,-0.90519 -0.1297,-1.80975 -0.19453,-2.71381 -0.0174,-0.24196 -0.0347,-0.48389 -0.0521,-0.72578 -0.007,-0.0934 -0.0132,-0.18688 -0.0197,-0.28031 0.009,-0.12809 0.0181,-0.25617 0.0273,-0.38423 10e-6,-1.4e-4 10e-6,-1.4e-4 10e-6,-1.5e-4 0.30374,-1.52265 0.34147,-2.71257 -0.24208,-3.79925 0,1e-5 -1e-5,1e-5 -1e-5,2e-5 -0.23917,0.48694 -0.35477,0.40706 -0.17809,0.071 0,0 1e-5,-10e-6 1e-5,-10e-6 0.32976,-1.55451 -0.32451,-3.71834 -0.81619,-6.3697 -0.66465,-3.04331 -1.46412,-6.25337 -1.90759,-9.68619 -0.21049,-1.5906 -0.31775,-3.30458 -0.19962,-5.11173 0,-10e-6 0,-2e-5 0,-3e-5 0.0786,-1.59167 0.46942,-3.34478 1.31719,-5.10862 1e-5,-10e-6 2e-5,-2e-5 2e-5,-3e-5 6.82899,-13.3243 11.97646,-26.59614 16.26756,-39.26574 4.29111,-12.66961 7.72252,-24.73863 10.77222,-35.85187 3.5693,-13.02963 6.55195,-24.80308 9.193,-35.08206 2.64104,-10.27899 4.9321,-19.0655 6.89034,-26.18767 3.91648,-14.24435 6.46178,-21.8345 6.9865,-21.69851 z" id="path7628" inkscape:connector-curvature="0"/>
      <path transform="translate(0,52.362183)" style="fill:#000000;fill-rule:evenodd;stroke:none" d="m 295.57063,758.16948 c 0.0239,-0.47118 1.0099,-0.88949 2.85982,-1.18278 1.84993,-0.2933 4.56589,-0.45866 8.01436,-0.31798 3.44847,0.14068 7.6316,0.59034 12.3468,1.58953 4.71521,0.99919 9.96326,2.55117 15.44945,4.91254 5.0337,2.17714 10.22219,5.03401 15.28424,8.61272 5.06205,3.57872 9.9954,7.87952 14.51196,12.83075 0.068,0.075 0.1359,0.15012 0.20371,0.22537 7.13426,7.91729 12.51348,16.4945 16.45991,24.70623 3.94643,8.21174 6.47579,16.0486 8.06757,22.7174 1.59179,6.6688 2.25978,12.17318 2.41764,15.9934 0.15787,3.82022 -0.18254,5.9659 -0.86315,6.07934 -0.68061,0.11344 -1.63998,-1.81077 -2.96097,-5.3063 -1.321,-3.49554 -3.01523,-8.57095 -5.37516,-14.66699 -2.35993,-6.09604 -5.39288,-13.21402 -9.4648,-20.61685 -4.07192,-7.40284 -9.19031,-15.07913 -15.68649,-22.18916 -0.0617,-0.0676 -0.12356,-0.13504 -0.18543,-0.2024 -4.06139,-4.45031 -8.41222,-8.39049 -12.84289,-11.77085 -4.43067,-3.38036 -8.94018,-6.20043 -13.3252,-8.49504 -4.77303,-2.5094 -9.405,-4.40381 -13.62141,-5.8896 -4.21642,-1.4858 -8.01757,-2.56474 -11.1878,-3.42496 -3.17022,-0.86022 -5.7113,-1.50401 -7.44977,-2.07139 -1.73848,-0.56738 -2.67631,-1.0618 -2.65239,-1.53298 z" id="path7632" inkscape:connector-curvature="0"/>
      <path transform="translate(0,52.362183)" style="fill:#000000;fill-rule:evenodd;stroke:none" d="m 615.1829,779.38268 c 0.31435,0.61424 -0.45061,1.71773 -1.95309,3.27334 -1.50248,1.55561 -3.73447,3.5802 -6.35358,6.15931 -2.61911,2.57911 -5.62284,5.72373 -8.74592,9.42693 -3.12307,3.70319 -6.36669,7.96658 -9.55017,12.59549 -0.25987,0.37786 -0.51738,0.75515 -0.77253,1.13167 -2.13876,3.19776 -4.07771,6.35103 -5.78495,9.38848 -1.70723,3.03744 -3.18278,5.95931 -4.44235,8.68586 -1.14014,2.49495 -2.11733,4.80407 -2.92933,6.87145 -0.81199,2.06738 -1.46112,3.8941 -2.0089,5.42064 -0.54778,1.52654 -0.99799,2.75355 -1.42936,3.60425 -0.43136,0.8507 -0.84811,1.32484 -1.28465,1.32484 -0.43654,0 -0.86705,-0.47767 -1.23822,-1.41001 -0.37116,-0.93235 -0.67898,-2.32034 -0.82056,-4.10464 -0.14158,-1.7843 -0.11293,-3.96503 0.17699,-6.43801 0.28993,-2.47297 0.84398,-5.23738 1.68914,-8.14911 0.91768,-3.20288 2.17898,-6.62767 3.80609,-10.12967 1.62711,-3.50199 3.62015,-7.08012 5.94172,-10.5952 0.26962,-0.41326 0.54398,-0.82651 0.82309,-1.23947 3.41909,-5.05886 7.23982,-9.57847 11.09337,-13.28974 3.85354,-3.71127 7.73209,-6.61446 11.19094,-8.68991 3.45885,-2.07546 6.4895,-3.33374 8.69598,-3.92315 2.20649,-0.58941 3.58194,-0.52759 3.89629,0.0867 z" id="path7636" inkscape:connector-curvature="0"/>
      <path transform="translate(0,52.362183)" style="fill:#000000;fill-rule:evenodd;stroke:none" d="m 326.68333,667.65981 c 0.55174,-0.44002 2.27137,0.7246 5.06711,2.87877 1.39788,1.07709 3.07133,2.39494 5.04001,3.81481 1.96868,1.41987 4.23253,2.94253 6.82876,4.36801 0,0 0,0 0,0 3.99118,2.19323 8.80342,4.20341 14.16729,4.9643 4.15905,0.61367 8.73508,0.4721 13.34121,-0.55156 4.16326,-0.91691 8.39282,-2.59081 12.53055,-4.83352 0.15561,-0.0843 0.31078,-0.16931 0.4655,-0.25487 4.92992,-2.71844 9.34325,-6.04803 13.28971,-9.58848 3.94647,-3.54045 7.42593,-7.28804 10.48626,-10.90606 3.09048,-3.6819 5.73824,-7.23823 7.97646,-10.48431 2.23823,-3.24608 4.06943,-6.18182 5.57153,-8.63123 1.5021,-2.44941 2.67903,-4.41234 3.60451,-5.72288 0.92547,-1.31054 1.6041,-1.96792 2.04027,-1.82253 0.43617,0.14539 0.60209,1.08691 0.45561,2.72874 -0.14649,1.64183 -0.6099,3.98385 -1.49842,6.87621 -0.88853,2.89236 -2.2064,6.33467 -4.06141,10.12648 -1.85501,3.79181 -4.25021,7.93208 -7.23795,12.18031 -2.93258,4.2008 -6.48615,8.55859 -10.75695,12.69675 -4.2708,4.13817 -9.26132,8.05302 -15.00134,11.28156 -0.18211,0.10218 -0.36505,0.20354 -0.54883,0.30408 -4.88677,2.67337 -10.10719,4.6045 -15.36907,5.6071 -5.87683,1.11127 -11.70532,0.94743 -16.94908,-0.21627 -6.74041,-1.52712 -12.25041,-4.54532 -16.45815,-7.74445 -10e-6,0 -10e-6,0 -10e-6,0 -2.71383,-2.0669 -4.91484,-4.18197 -6.69617,-6.15244 -1.78132,-1.97047 -3.14362,-3.7973 -4.15561,-5.35495 -2.02397,-3.11529 -2.68353,-5.12355 -2.13179,-5.56357 z" id="path7640" inkscape:connector-curvature="0"/>
    </g>
  </g>
  <metadata>
    <rdf:RDF>
      <cc:Work>
        <dc:format>image/svg+xml</dc:format>
        <dc:type rdf:resource="http://purl.org/dc/dcmitype/StillImage"/>
        <cc:license rdf:resource="http://creativecommons.org/licenses/publicdomain/"/>
        <dc:publisher>
          <cc:Agent rdf:about="http://openclipart.org/">
            <dc:title>Open Clip Art Library</dc:title>
          </cc:Agent>
        </dc:publisher>
        <dc:title>Drawing old style</dc:title>
        <dc:date>2012-02-10T17:36:19</dc:date>
        <dc:description/>
        <dc:source>http://openclipart.org/detail/168083/drawing-old-style-by-mi_brami</dc:source>
        <dc:creator>
          <cc:Agent>
            <dc:title>mi_brami</dc:title>
          </cc:Agent>
        </dc:creator>
        <dc:subject>
          <rdf:Bag>
            <rdf:li>Paper</rdf:li>
            <rdf:li>clip art</rdf:li>
            <rdf:li>clipart</rdf:li>
            <rdf:li>drawing</rdf:li>
            <rdf:li>ink</rdf:li>
            <rdf:li>pen</rdf:li>
            <rdf:li>sketch</rdf:li>
            <rdf:li>triangle</rdf:li>
          </rdf:Bag>
        </dc:subject>
      </cc:Work>
      <cc:License rdf:about="http://creativecommons.org/licenses/publicdomain/">
        <cc:permits rdf:resource="http://creativecommons.org/ns#Reproduction"/>
        <cc:permits rdf:resource="http://creativecommons.org/ns#Distribution"/>
        <cc:permits rdf:resource="http://creativecommons.org/ns#DerivativeWorks"/>
      </cc:License>
    </rdf:RDF>
  </metadata>
</svg>
