<?xml version="1.0" encoding="utf-8"?>
<!-- Generator: Adobe Illustrator 14.0.0, SVG Export Plug-In . SVG Version: 6.00 Build 43363)  -->
<!DOCTYPE svg PUBLIC "-//W3C//DTD SVG 1.1//EN" "http://www.w3.org/Graphics/SVG/1.1/DTD/svg11.dtd">
<svg xmlns="http://www.w3.org/2000/svg" xmlns:xlink="http://www.w3.org/1999/xlink" xmlns:svg="http://www.w3.org/2000/svg" xmlns:dc="http://purl.org/dc/elements/1.1/" xmlns:cc="http://web.resource.org/cc/" xmlns:rdf="http://www.w3.org/1999/02/22-rdf-syntax-ns#" version="1.1" x="0px" y="0px" width="500px" height="500px" viewBox="0 0 500 500" enable-background="new 0 0 500 500" xml:space="preserve">
<g id="Outline">
	<path id="Base_1_" stroke="#000000" d="M344.28,334.912c-20.176-65.79-70.175-48.245-70.175-48.245S234.631,154.21,225.86,118.246   c72.807-15.79,37.719-94.737,37.719-94.737L99.544,49.825c25.438,107.019,95.614,78.947,95.614,78.947   s35.088,128.07,48.246,170.175c-62.281,32.456-37.719,92.982-37.719,92.982l28.07,89.474l139.474-54.386   C373.229,427.018,364.456,400.702,344.28,334.912z M153.053,71.841l81.579-15.79c0,0,13.158,28.948-27.193,38.597   S159.193,83.245,153.053,71.841z"/>
</g>
<g id="Layer_2">
	<linearGradient id="Base_2_" gradientUnits="userSpaceOnUse" x1="319.4307" y1="441.9805" x2="169.6295" y2="30.4052">
		<stop offset="0" style="stop-color:#557221"/>
		<stop offset="0.3374" style="stop-color:#8FB53D"/>
		<stop offset="0.6871" style="stop-color:#B6C132"/>
		<stop offset="1" style="stop-color:#F4EB32"/>
	</linearGradient>
	<path id="Base" fill="url(#Base_2_)" stroke="#000000" stroke-width="0.9295" d="M341.321,335.241   c-18.753-61.15-69.227-42.843-69.227-42.843s-43.69-143.117-51.843-176.545c76.661-17.695,39.059-89.057,39.059-89.057   l-152.468,26.46c23.645,99.472,91.872,70.38,91.872,70.38s38.614,139.04,50.844,178.175c-64.049,31.433-37.06,86.426-37.06,86.426   l26.091,83.165l129.639-50.551C368.229,420.853,360.074,396.393,341.321,335.241z M147.578,68.721c0,0,72.773-12.669,88.826-16.676   c6.753,18.042,9.229,38.907-28.275,47.875C170.624,108.888,153.053,88.508,147.578,68.721z"/>
	<g id="inside_x5F_shovel">
		<path d="M250.176,445.508c0,0-25.316-100.332-12.158-109.104s48.632-27.193,59.158-24.562c0,7.895,4.122,31.053,56.754,102.105    c-6.141-21.93-32.192-96.843-32.192-96.843s-7.019-24.562-35.966-14.035s-60.035,20.176-57.403,42.105    S245.79,434.104,250.176,445.508z"/>
	</g>
	<g id="Highlights">
		<linearGradient id="SVGID_1_" gradientUnits="userSpaceOnUse" x1="112.3335" y1="79.667" x2="137.667" y2="79.667">
			<stop offset="0" style="stop-color:#FFFFFF"/>
			<stop offset="1" style="stop-color:#FFFFFF"/>
		</linearGradient>
		<path fill="url(#SVGID_1_)" d="M135,53l-22.667,4.667c0,0,7.333,32.667,25.333,48.667C133,95.667,107.667,61.667,135,53z"/>
		<linearGradient id="SVGID_2_" gradientUnits="userSpaceOnUse" x1="204.3335" y1="210.6665" x2="256.334" y2="210.6665">
			<stop offset="0" style="stop-color:#FFFFFF"/>
			<stop offset="1" style="stop-color:#FFFFFF"/>
		</linearGradient>
		<polygon fill="url(#SVGID_2_)" points="204.333,127 252.334,296.333 256.334,295 207.667,125   "/>
		<linearGradient id="SVGID_3_" gradientUnits="userSpaceOnUse" x1="212.1694" y1="391.5" x2="235" y2="391.5">
			<stop offset="0" style="stop-color:#FFFFFF"/>
			<stop offset="1" style="stop-color:#FFFFFF"/>
		</linearGradient>
		<path fill="url(#SVGID_3_)" d="M217,340c0,0-8,14,18,103C217,390,205,357,217,340z"/>
	</g>
</g>
<metadata><rdf:RDF><cc:Work><dc:format>image/svg+xml</dc:format><dc:type rdf:resource="http://purl.org/dc/dcmitype/StillImage"/><cc:license rdf:resource="http://creativecommons.org/licenses/publicdomain/"/><dc:publisher><cc:Agent rdf:about="http://openclipart.org/"><dc:title>Open Clip Art Library</dc:title></cc:Agent></dc:publisher><dc:title>Summer Shovel</dc:title><dc:date>2010-07-06T05:08:47</dc:date><dc:description>A shovel, created for the "summer2010" clip art package.</dc:description><dc:source>http://openclipart.org/detail/70669/summer-shovel-by-pianobrad</dc:source><dc:creator><cc:Agent><dc:title>pianoBrad</dc:title></cc:Agent></dc:creator><dc:subject><rdf:Bag><rdf:li>beach</rdf:li><rdf:li>clip art</rdf:li><rdf:li>clipart</rdf:li><rdf:li>environment</rdf:li><rdf:li>garden</rdf:li><rdf:li>sand</rdf:li><rdf:li>sandbox</rdf:li><rdf:li>summer</rdf:li><rdf:li>summer2010</rdf:li><rdf:li>toybox</rdf:li><rdf:li>toys</rdf:li></rdf:Bag></dc:subject></cc:Work><cc:License rdf:about="http://creativecommons.org/licenses/publicdomain/"><cc:permits rdf:resource="http://creativecommons.org/ns#Reproduction"/><cc:permits rdf:resource="http://creativecommons.org/ns#Distribution"/><cc:permits rdf:resource="http://creativecommons.org/ns#DerivativeWorks"/></cc:License></rdf:RDF></metadata></svg>
